HIERARCHY
ROOT Hips
{
	OFFSET 0.000000 0.000000 0.000000
	CHANNELS 6 Xposition Yposition Zposition Xrotation Yrotation Zrotation
	JOINT Chest
	{
		OFFSET 0.000000 0.009282 11.569106
		CHANNELS 3 Xrotation Yrotation Zrotation
		JOINT Chest2
		{
			OFFSET 0.000000 -0.016863 9.269641
			CHANNELS 3 Xrotation Yrotation Zrotation
			JOINT Chest3
			{
				OFFSET 0.000000 0.000000 8.374491
				CHANNELS 3 Xrotation Yrotation Zrotation
				JOINT Chest4
				{
					OFFSET 0.000000 0.000000 8.374493
					CHANNELS 3 Xrotation Yrotation Zrotation
					JOINT Neck
					{
						OFFSET 0.000000 -0.000001 12.152554
						CHANNELS 3 Xrotation Yrotation Zrotation
						JOINT Head
						{
							OFFSET 0.000000 -0.040100 7.802319
							CHANNELS 3 Xrotation Yrotation Zrotation
							End Site
							{
								OFFSET 0.000000 -0.020946 14.853096
							}
						}
					}
					JOINT RightCollar
					{
						OFFSET -2.894404 0.000000 6.791374
						CHANNELS 3 Xrotation Yrotation Zrotation
						JOINT RightShoulder
						{
							OFFSET -13.574684 0.000000 0.000000
							CHANNELS 3 Xrotation Yrotation Zrotation
							JOINT RightElbow
							{
								OFFSET -23.923903 0.000000 0.000000
								CHANNELS 3 Xrotation Yrotation Zrotation
								JOINT RightWrist
								{
									OFFSET -19.846718 -0.012765 0.000000
									CHANNELS 3 Xrotation Yrotation Zrotation
									End Site
									{
										OFFSET -14.973145 0.000000 0.000000
									}
								}
							}
						}
					}
					JOINT LeftCollar
					{
						OFFSET 2.894404 0.000000 6.791374
						CHANNELS 3 Xrotation Yrotation Zrotation
						JOINT LeftShoulder
						{
							OFFSET 13.574684 0.000000 0.000000
							CHANNELS 3 Xrotation Yrotation Zrotation
							JOINT LeftElbow
							{
								OFFSET 23.923903 0.000000 0.000000
								CHANNELS 3 Xrotation Yrotation Zrotation
								JOINT LeftWrist
								{
									OFFSET 19.846718 -0.012765 0.000000
									CHANNELS 3 Xrotation Yrotation Zrotation
									End Site
									{
										OFFSET 14.973145 0.000000 0.000000
									}
								}
							}
						}
					}
				}
			}
		}
	}
	JOINT RightHip
	{
		OFFSET -9.469263 -0.004642 0.045487
		CHANNELS 3 Xrotation Yrotation Zrotation
		JOINT RightKnee
		{
			OFFSET 0.000000 -0.002666 -40.478676
			CHANNELS 3 Xrotation Yrotation Zrotation
			JOINT RightAnkle
			{
				OFFSET 0.000000 -0.049110 -35.224068
				CHANNELS 3 Xrotation Yrotation Zrotation
				JOINT RightToe
				{
					OFFSET 0.000000 -12.539530 -6.151390
					CHANNELS 3 Xrotation Yrotation Zrotation
					End Site
					{
						OFFSET 0.000000 -5.044995 -1.291870
					}
				}
			}
		}
	}
	JOINT LeftHip
	{
		OFFSET 9.469263 -0.004642 0.045487
		CHANNELS 3 Xrotation Yrotation Zrotation
		JOINT LeftKnee
		{
			OFFSET 0.000000 -0.002666 -40.478676
			CHANNELS 3 Xrotation Yrotation Zrotation
			JOINT LeftAnkle
			{
				OFFSET 0.000000 -0.049110 -35.224068
				CHANNELS 3 Xrotation Yrotation Zrotation
				JOINT LeftToe
				{
					OFFSET 0.000000 -12.539530 -6.151390
					CHANNELS 3 Xrotation Yrotation Zrotation
					End Site
					{
						OFFSET 0.000000 -5.044995 -1.291870
					}
				}
			}
		}
	}
}
MOTION
Frames: 17
Frame Time: 0.016667
-10.644331 -7.634134 83.174492 0.454098 1.061708 -106.320179 3.055500 0.454970 2.182130 1.361980 0.192810 0.958986 1.361980 0.192810 0.958988 1.021789 0.142471 0.719675 17.480460 -1.647908 -3.731018 -3.724776 -1.733370 -7.368289 -1.155868 -6.727940 -0.421048 11.019404 -37.708064 8.187936 69.607093 -1.323894 86.394660 29.674716 -52.834013 -7.700914 6.892177 5.265198 -7.741231 13.417589 29.509231 -22.574267 73.330830 14.665480 -87.359171 24.023356 41.380438 24.891465 2.110063 0.760879 -0.408301 3.145883 -1.227186 -10.885231 -3.206680 0.536969 1.423821 -0.011114 -0.059125 -0.003794 4.267856 1.430234 2.082231 -0.651774 -0.897215 -0.546076 -2.729774 0.191212 0.350948 0.018325 0.006723 0.007082 
-10.662153 -7.618687 83.175812 0.461310 1.099067 -106.321156 3.043794 0.462429 2.176849 1.357183 0.195456 0.956837 1.357182 0.195456 0.956838 1.018195 0.144468 0.718066 17.515354 -1.681371 -3.751177 -3.661554 -1.789425 -7.415981 -1.210932 -6.753935 -0.531523 11.031616 -37.662616 8.233963 69.681078 -1.410861 86.424016 29.667531 -52.830219 -7.748804 6.852653 5.291903 -7.744857 13.381888 29.490537 -22.483393 73.377959 14.685994 -87.407563 24.084924 41.394928 24.796565 2.154384 0.763829 -0.414125 3.164650 -1.242823 -10.851732 -3.230744 0.561690 1.394109 -0.009088 -0.056118 -0.004533 4.319268 1.437843 2.057201 -0.645723 -0.917992 -0.524810 -2.748107 0.197791 0.359994 0.017112 0.012777 0.006312 
-10.678689 -7.600101 83.176476 0.467067 1.125344 -106.325951 3.027747 0.469038 2.170455 1.349288 0.198588 0.954196 1.349288 0.198588 0.954195 1.012278 0.146836 0.716089 17.542491 -1.720961 -3.768114 -3.613170 -1.857326 -7.459986 -1.304411 -6.768923 -0.664336 11.140050 -37.619596 8.326183 69.729620 -1.415491 86.445668 29.711678 -52.836059 -7.698794 6.790983 5.328326 -7.760872 13.401182 29.486774 -22.393371 73.383006 14.640393 -87.405139 24.061481 41.431405 24.726262 2.198099 0.760925 -0.447194 3.161072 -1.252556 -10.804600 -3.248100 0.589114 1.392922 -0.003345 -0.054803 -0.004098 4.365863 1.438162 2.070365 -0.652129 -0.932637 -0.528530 -2.762958 0.203710 0.355509 0.018092 0.018789 0.006726 
-10.696062 -7.578976 83.177544 0.471757 1.143423 -106.338498 3.016477 0.478118 2.167627 1.343370 0.202780 0.952819 1.343370 0.202780 0.952820 1.007844 0.149992 0.715068 17.554293 -1.767948 -3.785264 -3.593743 -1.937803 -7.507139 -1.366944 -6.760260 -0.802873 11.299084 -37.607602 8.502423 69.723473 -1.371410 86.476800 29.626164 -52.833569 -7.780473 6.712803 5.360283 -7.785043 13.443306 29.483157 -22.303455 73.357488 14.598013 -87.415746 24.004413 41.472065 24.649932 2.244939 0.752212 -0.478210 3.133486 -1.258496 -10.763459 -3.253522 0.615964 1.393872 0.001236 -0.051024 -0.003595 4.411288 1.434552 2.104465 -0.669773 -0.941347 -0.543248 -2.772750 0.206162 0.353453 0.017919 0.024652 0.007084 
-10.712816 -7.556823 83.179337 0.476860 1.158680 -106.355184 3.009370 0.491587 2.163621 1.339968 0.208560 0.951343 1.339969 0.208561 0.951343 1.005303 0.154336 0.713966 17.553596 -1.817836 -3.802286 -3.597748 -2.022914 -7.555263 -1.435109 -6.766040 -0.902387 11.496496 -37.615921 8.683556 69.652671 -1.323694 86.491532 29.532970 -52.910392 -7.874311 6.676012 5.374054 -7.795699 13.430864 29.473704 -22.227927 73.335714 14.632813 -87.409530 23.874279 41.561394 24.591883 2.300593 0.737926 -0.501792 3.080848 -1.255989 -10.731416 -3.245740 0.633190 1.390726 0.005112 -0.042034 -0.002310 4.455471 1.430761 2.131115 -0.689568 -0.956061 -0.561712 -2.779906 0.213029 0.360977 0.015946 0.029512 0.006395 
-10.728466 -7.535064 83.181297 0.478127 1.171412 -106.374206 2.996404 0.509760 2.161013 1.334284 0.216020 0.951372 1.334284 0.216020 0.951374 1.001051 0.159939 0.714006 17.548670 -1.870881 -3.822179 -3.609734 -2.112566 -7.609780 -1.439427 -6.771714 -0.967450 11.623018 -37.629589 8.828911 69.606820 -1.322677 86.509387 29.389013 -52.929304 -8.052155 6.650463 5.387011 -7.803562 13.375090 29.458476 -22.137309 73.376149 14.743129 -87.419441 23.719290 41.676961 24.545472 2.355094 0.726054 -0.519891 3.021364 -1.249043 -10.714577 -3.235718 0.639254 1.410512 0.009696 -0.029009 -0.001716 4.490247 1.431014 2.126662 -0.699065 -0.971293 -0.566317 -2.788817 0.218833 0.388735 0.011909 0.032814 0.005154 
-10.739917 -7.517148 83.182076 0.472203 1.170299 -106.398358 2.978094 0.525496 2.163429 1.326611 0.222210 0.953172 1.326611 0.222210 0.953173 0.995307 0.164590 0.715366 17.535307 -1.923643 -3.848297 -3.637300 -2.199111 -7.675735 -1.426354 -6.772901 -1.025331 11.680320 -37.630705 8.943764 69.630712 -1.378066 86.520055 29.351891 -52.938484 -8.096607 6.591650 5.414649 -7.790974 13.342569 29.429827 -22.072040 73.446370 14.878956 -87.402202 23.637581 41.754364 24.394364 2.384336 0.719586 -0.520702 2.974158 -1.245089 -10.713233 -3.231828 0.640226 1.418692 0.015882 -0.015012 -0.002175 4.505917 1.436201 2.104540 -0.706124 -0.989012 -0.567660 -2.796903 0.224827 0.428932 0.008844 0.035084 0.004219 
-10.747354 -7.499544 83.181183 0.464540 1.159324 -106.423739 2.957348 0.534835 2.164817 1.317358 0.226150 0.955079 1.317359 0.226150 0.955076 0.988374 0.167555 0.716799 17.510018 -1.969127 -3.879278 -3.686440 -2.270047 -7.748292 -1.432441 -6.779761 -1.063652 11.729809 -37.593744 9.032827 69.695483 -1.456993 86.528053 29.358038 -52.900464 -8.061253 6.542493 5.435498 -7.776933 13.323122 29.421723 -22.031335 73.512001 15.003195 -87.383555 23.619849 41.800467 24.239530 2.402872 0.711560 -0.523484 2.922259 -1.238534 -10.718478 -3.224944 0.640684 1.444017 0.023123 -0.004581 -0.002000 4.510415 1.437387 2.073965 -0.716294 -1.000893 -0.554765 -2.803789 0.229341 0.464077 0.009222 0.035890 0.003721 
-10.752591 -7.482415 83.179710 0.454790 1.145374 -106.452275 2.937517 0.541095 2.162740 1.308122 0.229234 0.954902 1.308122 0.229234 0.954898 0.981450 0.169883 0.716669 17.471190 -2.005754 -3.911281 -3.760171 -2.323684 -7.819993 -1.457960 -6.799214 -1.089811 11.798215 -37.537975 9.125965 69.751435 -1.539828 86.538210 29.393074 -52.855115 -7.967475 6.520598 5.443443 -7.775947 13.334892 29.431951 -21.982236 73.507643 14.980275 -87.379245 23.585326 41.856898 24.148055 2.412267 0.701471 -0.521583 2.878240 -1.225934 -10.726875 -3.221500 0.639293 1.478469 0.030812 0.002721 -0.002315 4.512020 1.438727 2.057805 -0.730178 -1.011356 -0.548694 -2.808451 0.232965 0.493639 0.010383 0.037441 0.003606 
-10.757639 -7.465500 83.178604 0.444720 1.133712 -106.483476 2.927379 0.544833 2.156264 1.303142 0.231510 0.952982 1.303143 0.231510 0.952979 0.977719 0.171602 0.715229 17.414426 -2.033197 -3.944813 -3.866552 -2.358983 -7.891696 -1.504879 -6.815657 -1.124909 11.909400 -37.486015 9.262208 69.812996 -1.610301 86.540307 29.361867 -52.826531 -7.980698 6.513131 5.451000 -7.778993 13.368785 29.436982 -21.946854 73.452961 14.859959 -87.391301 23.516019 41.905963 24.117555 2.424652 0.688790 -0.520347 2.831160 -1.207636 -10.724820 -3.214914 0.638516 1.494988 0.037215 0.007122 -0.001715 4.518568 1.443097 2.044004 -0.750203 -1.024942 -0.542011 -2.809408 0.239663 0.522676 0.011013 0.037404 0.002881 
-10.761398 -7.450211 83.177773 0.435579 1.119448 -106.518234 2.917324 0.545924 2.149064 1.298696 0.231902 0.950661 1.298696 0.231902 0.950662 0.974385 0.171907 0.713488 17.349333 -2.054627 -3.980071 -3.987961 -2.382187 -7.964668 -1.563525 -6.823571 -1.162102 12.065434 -37.436550 9.422017 69.831321 -1.649883 86.559486 29.326312 -52.837001 -7.992111 6.545803 5.447178 -7.785910 13.371857 29.453777 -21.924595 73.383033 14.739661 -87.398814 23.471890 41.949304 24.084565 2.425100 0.682747 -0.518692 2.800513 -1.199968 -10.721004 -3.213534 0.639763 1.529181 0.041049 0.010219 -0.001652 4.522258 1.447398 2.038398 -0.770770 -1.039755 -0.535138 -2.809571 0.247097 0.543807 0.011768 0.037010 0.002348 
-10.763383 -7.437598 83.176826 0.426039 1.102493 -106.552365 2.901840 0.541424 2.138647 1.292006 0.229701 0.946495 1.292006 0.229701 0.946494 0.969361 0.170276 0.710357 17.289871 -2.067113 -4.015777 -4.098321 -2.389210 -8.035282 -1.578223 -6.807527 -1.185409 12.190544 -37.423628 9.572841 69.805606 -1.658265 86.559472 29.321418 -52.876869 -7.968590 6.565616 5.459718 -7.792479 13.360519 29.472683 -21.864305 73.365698 14.686281 -87.388043 23.439006 41.975307 24.075368 2.415721 0.677354 -0.512924 2.780978 -1.194703 -10.709119 -3.216021 0.644912 1.545984 0.044149 0.010450 -0.002041 4.519142 1.453048 2.056461 -0.787267 -1.054652 -0.547330 -2.810574 0.253644 0.563761 0.012834 0.036387 0.002150 
-10.764392 -7.426641 83.175873 0.414154 1.077507 -106.590143 2.890189 0.538898 2.131457 1.286787 0.228587 0.943837 1.286788 0.228587 0.943836 0.965446 0.169454 0.708361 17.233315 -2.080526 -4.052222 -4.203301 -2.397785 -8.107489 -1.557236 -6.787833 -1.180422 12.224418 -37.449640 9.649733 69.798564 -1.665368 86.570899 29.293363 -52.943078 -8.000201 6.549150 5.470481 -7.788265 13.346854 29.495178 -21.801667 73.386544 14.690332 -87.391034 23.406971 41.987714 24.074486 2.396021 0.670447 -0.503890 2.763083 -1.186138 -10.690975 -3.217379 0.650556 1.534744 0.046647 0.009176 -0.002500 4.506215 1.457110 2.099889 -0.802092 -1.063263 -0.570654 -2.813358 0.255929 0.572859 0.014792 0.036327 0.002162 
-10.765478 -7.416218 83.175018 0.400430 1.049552 -106.620455 2.887756 0.540812 2.127188 1.285586 0.229798 0.942299 1.285587 0.229798 0.942299 0.964546 0.170367 0.707211 17.173949 -2.099170 -4.089188 -4.313845 -2.415474 -8.182554 -1.594888 -6.782061 -1.183021 12.307645 -37.484730 9.685154 69.773695 -1.687157 86.561255 29.248929 -52.929581 -8.052428 6.531502 5.466657 -7.792355 13.312629 29.513278 -21.741752 73.405730 14.706453 -87.367661 23.451152 41.976796 23.989190 2.372658 0.666031 -0.500794 2.746613 -1.176939 -10.679209 -3.218572 0.654246 1.548915 0.048196 0.007348 -0.001917 4.488529 1.464489 2.127398 -0.816416 -1.076469 -0.585283 -2.814010 0.260886 0.587246 0.015586 0.035336 0.001703 
-10.765504 -7.406248 83.174004 0.386646 1.018027 -106.649852 2.878653 0.532719 2.120304 1.281602 0.226684 0.939550 1.281601 0.226684 0.939548 0.961550 0.168044 0.705137 17.116020 -2.109298 -4.125290 -4.421165 -2.417977 -8.253044 -1.586159 -6.764860 -1.164363 12.341476 -37.513711 9.689213 69.752303 -1.729901 86.546167 29.228019 -52.902735 -8.098586 6.527187 5.483779 -7.786839 13.299890 29.532372 -21.692244 73.391919 14.674801 -87.347553 23.451009 42.001500 23.961897 2.342336 0.658738 -0.491429 2.735827 -1.165811 -10.672046 -3.221379 0.658904 1.567778 0.049227 0.004487 -0.000561 4.464241 1.472138 2.134781 -0.824833 -1.094121 -0.590884 -2.819761 0.267534 0.608284 0.018476 0.034985 0.001076 
-10.763959 -7.396141 83.173462 0.368014 0.989138 -106.674776 2.868705 0.526885 2.112378 1.277456 0.225267 0.936505 1.277456 0.225267 0.936506 0.958438 0.166994 0.702852 17.054337 -2.120133 -4.157078 -4.535562 -2.422964 -8.316013 -1.596422 -6.765007 -1.157074 12.347796 -37.520886 9.667264 69.724484 -1.784149 86.589491 29.158518 -52.930121 -8.228992 6.502888 5.495401 -7.777023 13.344165 29.560369 -21.660434 73.341000 14.580121 -87.342287 23.368302 42.039015 23.958613 2.313241 0.659370 -0.478164 2.723267 -1.161158 -10.670480 -3.222271 0.667722 1.578504 0.049895 0.001836 -0.000646 4.438324 1.478776 2.131832 -0.831800 -1.098844 -0.586675 -2.821093 0.267160 0.629070 0.018529 0.034825 0.001251 
-10.763631 -7.383430 83.173759 0.352883 0.966909 -106.694822 2.864829 0.525495 2.104504 1.275467 0.225765 0.933626 1.275465 0.225765 0.933625 0.956948 0.167376 0.700694 16.990654 -2.137249 -4.183283 -4.654302 -2.441137 -8.371046 -1.727042 -6.786213 -1.190290 12.422624 -37.534765 9.626167 69.748560 -1.816518 86.575441 29.158730 -52.958480 -8.271572 6.446976 5.502463 -7.779626 13.394614 29.585992 -21.628105 73.302492 14.530141 -87.332472 23.264866 42.082513 23.982317 2.295148 0.656365 -0.468258 2.707632 -1.156038 -10.676659 -3.220534 0.675489 1.591506 0.048067 0.001405 -0.001165 4.420557 1.479203 2.143597 -0.837286 -1.099712 -0.584445 -2.825691 0.273524 0.631744 0.019112 0.030494 0.002532 
